<svg width="42" height="42" viewBox="0 0 42 42" fill="none" xmlns="http://www.w3.org/2000/svg">
<path d="M26.67 38.9725H26.4425C18.6725 38.9725 14.9275 35.91 14.28 29.05C14.21 28.3325 14.735 27.685 15.47 27.615C16.1875 27.545 16.835 28.0875 16.905 28.805C17.4125 34.3 20.0025 36.3475 26.46 36.3475H26.6875C33.81 36.3475 36.33 33.8275 36.33 26.705V15.295C36.33 8.1725 33.81 5.6525 26.6875 5.6525H26.46C19.9675 5.6525 17.3775 7.735 16.905 13.335C16.8175 14.0525 16.2225 14.595 15.47 14.525C14.735 14.4725 14.21 13.825 14.2625 13.1075C14.8575 6.1425 18.62 3.0275 26.4425 3.0275H26.67C35.2625 3.0275 38.9375 6.7025 38.9375 15.295V26.705C38.9375 35.2975 35.2625 38.9725 26.67 38.9725Z" fill="#171717"/>
<path d="M26.04 22.3125H3.5C2.7825 22.3125 2.1875 21.7175 2.1875 21C2.1875 20.2825 2.7825 19.6875 3.5 19.6875H26.04C26.7575 19.6875 27.3525 20.2825 27.3525 21C27.3525 21.7175 26.775 22.3125 26.04 22.3125Z" fill="#171717"/>
<path d="M22.1375 28.175C21.805 28.175 21.4725 28.0525 21.21 27.79C20.7025 27.2825 20.7025 26.4425 21.21 25.935L26.145 21L21.21 16.065C20.7025 15.5575 20.7025 14.7175 21.21 14.21C21.7175 13.7025 22.5575 13.7025 23.065 14.21L28.9275 20.0725C29.435 20.58 29.435 21.42 28.9275 21.9275L23.065 27.79C22.8025 28.0525 22.47 28.175 22.1375 28.175Z" fill="#171717"/>
</svg>
