<svg width="42" height="42" viewBox="0 0 42 42" fill="none" xmlns="http://www.w3.org/2000/svg">
<path d="M26.67 38.9725H26.4425C18.6725 38.9725 14.9275 35.91 14.28 29.05C14.21 28.3325 14.735 27.685 15.47 27.615C16.17 27.545 16.835 28.0875 16.905 28.805C17.4125 34.3 20.0025 36.3475 26.46 36.3475H26.6875C33.81 36.3475 36.33 33.8275 36.33 26.705V15.295C36.33 8.1725 33.81 5.6525 26.6875 5.6525H26.46C19.9675 5.6525 17.3775 7.735 16.905 13.335C16.8175 14.0525 16.205 14.595 15.47 14.525C14.735 14.4725 14.21 13.825 14.2625 13.1075C14.8575 6.1425 18.62 3.0275 26.4425 3.0275H26.67C35.2625 3.0275 38.9375 6.7025 38.9375 15.295V26.705C38.9375 35.2975 35.2625 38.9725 26.67 38.9725Z" fill="#171717"/>
<path d="M26.25 22.3125H6.33501C5.61751 22.3125 5.02251 21.7175 5.02251 21C5.02251 20.2825 5.61751 19.6875 6.33501 19.6875H26.25C26.9675 19.6875 27.5625 20.2825 27.5625 21C27.5625 21.7175 26.9675 22.3125 26.25 22.3125Z" fill="#171717"/>
<path d="M10.2375 28.175C9.905 28.175 9.5725 28.0525 9.31 27.79L3.4475 21.9275C2.94 21.42 2.94 20.58 3.4475 20.0725L9.31 14.21C9.8175 13.7025 10.6575 13.7025 11.165 14.21C11.6725 14.7175 11.6725 15.5575 11.165 16.065L6.23 21L11.165 25.935C11.6725 26.4425 11.6725 27.2825 11.165 27.79C10.92 28.0525 10.57 28.175 10.2375 28.175Z" fill="#171717"/>
</svg>
