<svg width="42" height="42" viewBox="0 0 42 42" fill="none" xmlns="http://www.w3.org/2000/svg">
<path d="M21 27.5625C17.3775 27.5625 14.4375 24.6225 14.4375 21C14.4375 17.3775 17.3775 14.4375 21 14.4375C24.6225 14.4375 27.5625 17.3775 27.5625 21C27.5625 24.6225 24.6225 27.5625 21 27.5625ZM21 17.0625C18.83 17.0625 17.0625 18.83 17.0625 21C17.0625 23.17 18.83 24.9375 21 24.9375C23.17 24.9375 24.9375 23.17 24.9375 21C24.9375 18.83 23.17 17.0625 21 17.0625Z" fill="#171717"/>
<path d="M26.6175 38.8325C26.25 38.8325 25.8825 38.78 25.515 38.6925C24.43 38.395 23.52 37.7125 22.9425 36.75L22.7325 36.4C21.7 34.615 20.2825 34.615 19.25 36.4L19.0575 36.7325C18.48 37.7125 17.57 38.4125 16.485 38.6925C15.3825 38.99 14.245 38.8325 13.2825 38.255L10.2725 36.5225C9.205 35.91 8.435 34.9125 8.1025 33.705C7.7875 32.4975 7.945 31.255 8.5575 30.1875C9.065 29.295 9.205 28.49 8.9075 27.9825C8.61 27.475 7.8575 27.1775 6.825 27.1775C4.27 27.1775 2.1875 25.095 2.1875 22.54V19.46C2.1875 16.905 4.27 14.8225 6.825 14.8225C7.8575 14.8225 8.61 14.525 8.9075 14.0175C9.205 13.51 9.0825 12.705 8.5575 11.8125C7.945 10.745 7.7875 9.48501 8.1025 8.29501C8.4175 7.08751 9.1875 6.09001 10.2725 5.47751L13.3 3.74501C15.2775 2.57251 17.885 3.25501 19.075 5.26751L19.285 5.61751C20.3175 7.40251 21.735 7.40251 22.7675 5.61751L22.96 5.28501C24.15 3.25501 26.7575 2.57251 28.7525 3.76251L31.7625 5.49501C32.83 6.10751 33.6 7.10501 33.9325 8.31251C34.2475 9.52001 34.09 10.7625 33.4775 11.83C32.97 12.7225 32.83 13.5275 33.1275 14.035C33.425 14.5425 34.1775 14.84 35.21 14.84C37.765 14.84 39.8475 16.9225 39.8475 19.4775V22.5575C39.8475 25.1125 37.765 27.195 35.21 27.195C34.1775 27.195 33.425 27.4925 33.1275 28C32.83 28.5075 32.9525 29.3125 33.4775 30.205C34.09 31.2725 34.265 32.5325 33.9325 33.7225C33.6175 34.93 32.8475 35.9275 31.7625 36.54L28.735 38.2725C28.07 38.64 27.3525 38.8325 26.6175 38.8325ZM21 32.3575C22.5575 32.3575 24.01 33.3375 25.0075 35.07L25.2 35.4025C25.41 35.77 25.76 36.0325 26.18 36.1375C26.6 36.2425 27.02 36.19 27.37 35.98L30.3975 34.23C30.8525 33.9675 31.2025 33.53 31.3425 33.005C31.4825 32.48 31.4125 31.9375 31.15 31.4825C30.1525 29.7675 30.03 28 30.8 26.6525C31.57 25.305 33.1625 24.535 35.1575 24.535C36.2775 24.535 37.17 23.6425 37.17 22.5225V19.4425C37.17 18.34 36.2775 17.43 35.1575 17.43C33.1625 17.43 31.57 16.66 30.8 15.3125C30.03 13.965 30.1525 12.1975 31.15 10.4825C31.4125 10.0275 31.4825 9.48501 31.3425 8.96001C31.2025 8.43501 30.87 8.01501 30.415 7.73501L27.3875 6.00251C26.635 5.54751 25.6375 5.81001 25.1825 6.58001L24.99 6.91251C23.9925 8.64501 22.54 9.62501 20.9825 9.62501C19.425 9.62501 17.9725 8.64501 16.975 6.91251L16.7825 6.56251C16.345 5.82751 15.365 5.56501 14.6125 6.00251L11.585 7.75251C11.13 8.01501 10.78 8.45251 10.64 8.97751C10.5 9.50251 10.57 10.045 10.8325 10.5C11.83 12.215 11.9525 13.9825 11.1825 15.33C10.4125 16.6775 8.82 17.4475 6.825 17.4475C5.705 17.4475 4.8125 18.34 4.8125 19.46V22.54C4.8125 23.6425 5.705 24.5525 6.825 24.5525C8.82 24.5525 10.4125 25.3225 11.1825 26.67C11.9525 28.0175 11.83 29.785 10.8325 31.5C10.57 31.955 10.5 32.4975 10.64 33.0225C10.78 33.5475 11.1125 33.9675 11.5675 34.2475L14.595 35.98C14.9625 36.2075 15.4 36.26 15.8025 36.155C16.2225 36.05 16.5725 35.77 16.8 35.4025L16.9925 35.07C17.99 33.355 19.4425 32.3575 21 32.3575Z" fill="#171717"/>
</svg>
