<svg width="129" height="147" viewBox="0 0 129 147" fill="none" xmlns="http://www.w3.org/2000/svg">
<path d="M103.899 34.79L70.1975 14.0875C66.65 11.8825 62.35 11.8825 58.8025 14.0875L25.1013 34.79C22.6288 36.3213 21.1238 39.2613 21.1238 42.63C21.1238 45.9375 22.6288 48.9388 25.1013 50.47L58.8025 71.1725C60.5763 72.275 62.565 72.8263 64.5 72.8263C66.435 72.8263 68.4238 72.275 70.1975 71.1725L103.899 50.47C106.371 48.9388 107.876 45.9988 107.876 42.63C107.876 39.2613 106.371 36.3213 103.899 34.79Z" fill="#FFF8F8"/>
<path opacity="0.4" d="M53.2662 78.3387L21.8763 60.4537C19.4575 59.1062 16.6625 59.2288 14.405 60.8213C12.0938 62.475 10.75 65.2312 10.75 68.2937V102.042C10.75 107.861 13.5988 113.129 18.1675 115.762L49.5038 133.647C50.5788 134.26 51.7613 134.566 52.9438 134.566C54.3413 134.566 55.7388 134.137 56.975 133.28C59.2863 131.687 60.63 128.87 60.63 125.808V92.0587C60.6837 86.1787 57.835 80.9112 53.2662 78.3387Z" fill="#FFF8F8"/>
<path opacity="0.4" d="M114.595 60.8213C112.284 59.2288 109.489 59.045 107.124 60.4538L75.7875 78.3388C71.2187 80.9725 68.37 86.1788 68.37 92.0588V125.807C68.37 128.87 69.7137 131.687 72.025 133.28C73.2612 134.137 74.6587 134.566 76.0562 134.566C77.2387 134.566 78.4212 134.26 79.4962 133.647L110.832 115.762C115.401 113.129 118.25 107.922 118.25 102.042V68.2938C118.25 65.2313 116.906 62.475 114.595 60.8213Z" fill="#FFF8F8"/>
</svg>
