<svg width="147" height="153" viewBox="0 0 147 153" fill="none" xmlns="http://www.w3.org/2000/svg">
<path d="M55.125 12.75C39.0775 12.75 26.0312 26.3288 26.0312 43.0312C26.0312 59.415 38.3425 72.675 54.39 73.2487C54.88 73.185 55.37 73.185 55.7375 73.2487C55.86 73.2487 55.9212 73.2487 56.0437 73.2487C56.105 73.2487 56.105 73.2487 56.1662 73.2487C71.8462 72.675 84.1575 59.415 84.2187 43.0312C84.2187 26.3288 71.1725 12.75 55.125 12.75Z" fill="#121212" fill-opacity="0.8"/>
<path d="M86.24 90.2063C69.1513 78.3488 41.2825 78.3488 24.0713 90.2063C16.2925 95.625 12.005 102.956 12.005 110.798C12.005 118.639 16.2925 125.906 24.01 131.261C32.585 137.254 43.855 140.25 55.125 140.25C66.395 140.25 77.665 137.254 86.24 131.261C93.9575 125.843 98.245 118.575 98.245 110.67C98.1838 102.829 93.9575 95.5613 86.24 90.2063Z" fill="#121212" fill-opacity="0.8"/>
<path d="M122.439 46.7925C123.419 59.16 114.966 69.9975 103.268 71.4638C103.206 71.4638 103.206 71.4638 103.145 71.4638H102.961C102.594 71.4638 102.226 71.4638 101.92 71.5913C95.9788 71.91 90.5275 69.9338 86.4238 66.3C92.7325 60.435 96.3463 51.6375 95.6113 42.075C95.1825 36.9113 93.4675 32.1938 90.895 28.1775C93.2225 26.9663 95.9175 26.2013 98.6738 25.9463C110.679 24.8625 121.398 34.17 122.439 46.7925Z" fill="#121212" fill-opacity="0.8"/>
<path d="M134.689 105.761C134.199 111.945 130.401 117.3 124.031 120.934C117.906 124.44 110.189 126.097 102.532 125.906C106.942 121.762 109.515 116.599 110.005 111.116C110.617 103.211 107.004 95.625 99.7762 89.5687C95.6725 86.19 90.895 83.5125 85.6887 81.5362C99.225 77.4562 116.252 80.1975 126.726 88.995C132.361 93.7125 135.24 99.6412 134.689 105.761Z" fill="#121212" fill-opacity="0.8"/>
</svg>
